<?xml version="1.0" encoding="utf-8"?>
<!-- Generator: Adobe Illustrator 27.1.1, SVG Export Plug-In . SVG Version: 6.00 Build 0)  -->
<svg version="1.1" id="a63d0a36-54cf-442a-b206-159b0c5aee81"
	 xmlns="http://www.w3.org/2000/svg" xmlns:xlink="http://www.w3.org/1999/xlink" x="0px" y="0px" viewBox="0 0 272.5 272.5"
	 style="enable-background:new 0 0 272.5 272.5;" xml:space="preserve">
<style type="text/css">
	.st0{fill:#0137F4;}
</style>
<path class="st0" d="M127.7,225.4c-14.4,0.1-28.8-1-43.1-3.4c-13-2.2-24-5.1-32.7-8.6c-8.1-3.2-15.8-7.5-22.7-12.8
	c-5.7-4.2-10.7-9.3-14.9-15c-3.6-5.1-6.5-10.6-8.8-16.3C3.4,164.2,1.9,159,1,153.6c-0.6-4.8-1-9.6-1-14.4v-7.1
	c0-7.1,0.8-14.2,2.4-21.1C4,104.6,7.5,97.2,13,89.1c5.6-8.2,12.8-15.3,21.1-20.8c8.6-5.8,21.1-10.8,36.9-14.9
	c16-4.1,34.9-6.2,56.7-6.2h10.9c19.6-0.2,39.2,1.6,58.5,5.4c17.3,3.5,31.3,7.9,41.1,12.9c9.8,5,17.8,10.8,23.5,17.2
	c5.7,6.5,8.9,12.1,10,16.9c0.9,4,1.1,8.1,0.5,12.1h-58c-0.2-0.9-0.4-1.8-0.7-2.6c-0.7-2-2.6-4.7-6.2-8.6c-3.8-4-8.3-7.2-13.4-9.6
	c-5.2-2.5-12.6-4.6-22.6-6.6c-11.1-2-22.3-3-33.6-2.9c-15,0-28,1.4-38.7,4.2c-11.1,2.9-19.6,7-25.5,12.2
	c-5.4,4.7-9.8,10.3-13.1,16.6c-2.9,5.9-4.6,12.3-5.1,18.9c-0.1,1.2-0.1,1.8-0.2,2.9c-0.5,6.4,0.3,12.8,2.4,18.9
	c2.4,6.5,6.1,12.4,11,17.4c5.4,5.7,13.5,10.2,24,13.5c10.2,3.2,22.4,4.9,36,4.9c39.9,0,62.3-10.8,75.4-32.2h57
	c-1.2,4.4-2.8,8.7-4.6,12.9c-2.1,5.1-6,11-11.1,17.6c-5.3,6.8-11.7,12.8-18.9,17.6c-7.6,5.1-18.7,9.5-33.5,13.1s-33.2,5.5-54.2,5.5
	H127.7z"/>
</svg>
