<?xml version="1.0" encoding="UTF-8"?>
<svg id="Capa_1" data-name="Capa 1" xmlns="http://www.w3.org/2000/svg" viewBox="0 0 48 48">
  <defs>
    <style>
      .cls-1 {
        fill: #fdfdfd;
        fill-rule: evenodd;
      }
    </style>
  </defs>
  <path class="cls-1" d="m24.79,37.35h0c-2.39,0-4.74-.6-6.82-1.74l-7.57,1.98,2.02-7.4c-1.25-2.16-1.91-4.62-1.9-7.13,0-7.87,6.41-14.27,14.27-14.27,3.82,0,7.4,1.49,10.1,4.19,2.69,2.7,4.18,6.28,4.18,10.1,0,7.87-6.4,14.27-14.27,14.27Zm-6.48-4.32l.43.26c1.82,1.08,3.91,1.65,6.04,1.65h0c6.54,0,11.86-5.32,11.86-11.86,0-3.17-1.23-6.15-3.47-8.39-2.24-2.24-5.22-3.48-8.39-3.48-6.54,0-11.86,5.32-11.87,11.86,0,2.24.63,4.42,1.81,6.31l.28.45-1.2,4.38,4.49-1.18Zm13.18-6.88c.25.12.42.2.49.32.09.15.09.86-.21,1.7-.3.83-1.72,1.59-2.41,1.7-.61.09-1.39.13-2.25-.14-.52-.16-1.18-.38-2.03-.75-3.34-1.44-5.6-4.68-6.03-5.3-.03-.04-.05-.07-.06-.09h0c-.19-.26-1.45-1.94-1.45-3.69,0-1.64.81-2.5,1.18-2.9.03-.03.05-.05.07-.07.33-.36.71-.45.95-.45s.48,0,.68.01c.03,0,.05,0,.08,0,.21,0,.47,0,.72.61.1.24.24.59.39.96.31.75.65,1.57.71,1.69.09.18.15.39.03.62-.02.04-.03.07-.05.1-.09.18-.15.32-.31.49-.06.07-.12.14-.18.22-.12.15-.25.3-.35.41-.18.18-.36.37-.16.73s.92,1.52,1.98,2.47c1.14,1.02,2.13,1.45,2.63,1.66.1.04.18.08.24.11.36.18.56.15.77-.09.21-.24.89-1.04,1.13-1.4.24-.36.48-.3.8-.18.33.12,2.08.98,2.44,1.16.07.03.13.07.19.1Z"/>
</svg>